#!OML:ASF H:\Dans Jumps\Project 1\Capture day 1\Session 1\subject.ASF
:FULLY-SPECIFIED
:DEGREES
585
root 0.0541152 17.4264 -7.2373 9.16643 -1.31241 -0.802757
lowerback 4.72846 0.165836 -0.799547
upperback 5.877 0.169255 1.33778
thorax 3.40237 0.0222811 1.82436
lowerneck -13.4592 0.370509 -1.47955
upperneck 33.8785 0.967313 -0.0208248
head 13.7093 0.225812 0.400702
rclavicle -6.95746e-016 -3.77691e-015
rhumerus -25.3973 -10.8789 -81.0945
rradius 27.3678
rwrist 27.7829
rhand -18.042 -23.7077
rfingers 7.12502
rthumb 8.22976 -53.5274
lclavicle -6.95746e-016 -3.77691e-015
lhumerus -24.7457 -7.78936 90.5666
lradius 26.1991
lwrist 16.6645
lhand -27.3978 -5.20366
lfingers 7.12502
lthumb -0.804261 24.7746
rfemur -24.0341 -2.76671 19.0627
rtibia 33.4226
rfoot -17.0827 -1.91665
rtoes 4.69512
lfemur -22.5572 5.92494 -17.9826
ltibia 29.5605
lfoot -14.1382 5.85973
ltoes 0.757996
586
root 0.0542532 17.4264 -7.23798 9.16392 -1.31097 -0.808444
lowerback 4.72074 0.16855 -0.793618
upperback 5.87807 0.172986 1.33839
thorax 3.40767 0.0243149 1.82162
lowerneck -13.4494 0.369814 -1.47957
upperneck 33.8739 0.965627 -0.0193274
head 13.7051 0.225383 0.400989
rclavicle -8.94531e-016 4.17448e-015
rhumerus -25.4049 -10.8899 -81.0937
rradius 27.3609
rwrist 27.7896
rhand -18.0403 -23.6926
rfingers 7.12502
rthumb 8.23139 -53.5122
lclavicle -8.94531e-016 4.17448e-015
lhumerus -24.7445 -7.79546 90.5785
lradius 26.2054
lwrist 16.6654
lhand -27.3888 -5.23261
lfingers 7.12502
lthumb -0.795573 24.7456
rfemur -24.0315 -2.76232 19.0675
rtibia 33.4195
rfoot -17.082 -1.91916
rtoes 4.70047
lfemur -22.56 5.92555 -17.9767
ltibia 29.5664
lfoot -14.1387 5.85728
ltoes 0.768236
587
root 0.0544562 17.4263 -7.23868 9.16104 -1.3095 -0.811956
lowerback 4.71461 0.170386 -0.789689
upperback 5.87864 0.175518 1.33844
thorax 3.4116 0.0256992 1.81946
lowerneck -13.4384 0.369174 -1.47979
upperneck 33.8669 0.963935 -0.0176426
head 13.6995 0.224965 0.401367
rclavicle 3.18055e-015 -7.95139e-016
rhumerus -25.4125 -10.8983 -81.0938
rradius 27.3545
rwrist 27.7996
rhand -18.0448 -23.6748
rfingers 7.12502
rthumb 8.22713 -53.4947
lclavicle 3.18055e-015 -7.95139e-016
lhumerus -24.7449 -7.80258 90.5901
lradius 26.2129
lwrist 16.6625
lhand -27.3825 -5.2759
lfingers 7.12502
lthumb -0.789523 24.7024
rfemur -24.0292 -2.76127 19.0701
rtibia 33.4176
rfoot -17.0831 -1.91937
rtoes 4.69922
lfemur -22.5627 5.92417 -17.9731
ltibia 29.5737
lfoot -14.1406 5.85603
ltoes 0.778955
588
root 0.0547102 17.4261 -7.23937 9.15731 -1.30947 -0.814711
lowerback 4.70992 0.172646 -0.786439
upperback 5.87934 0.1786 1.33828
thorax 3.41484 0.0273402 1.81743
lowerneck -13.4264 0.368004 -1.48192
upperneck 33.857 0.961504 -0.0146285
head 13.6925 0.224189 0.402483
rclavicle 1.98785e-016 3.97569e-016
rhumerus -25.4198 -10.907 -81.0938
rradius 27.348
rwrist 27.8148
rhand -18.0503 -23.6555
rfingers 7.12502
rthumb 8.2218 -53.4755
lclavicle 1.98785e-016 3.97569e-016
lhumerus -24.7462 -7.80792 90.6018
lradius 26.2216
lwrist 16.6591
lhand -27.3766 -5.32987
lfingers 7.12502
lthumb -0.783867 24.6484
rfemur -24.0268 -2.76126 19.072
rtibia 33.4166
rfoot -17.0826 -1.91874
rtoes 4.69435
lfemur -22.5646 5.92295 -17.9706
ltibia 29.5824
lfoot -14.1428 5.85683
ltoes 0.791098
589
root 0.055024 17.4259 -7.23998 9.15183 -1.31037 -0.815452
lowerback 4.70779 0.175333 -0.784435
upperback 5.88013 0.182242 1.33711
thorax 3.41672 0.0292451 1.81504
lowerneck -13.4191 0.367077 -1.48187
upperneck 33.8497 0.95941 -0.0129746
head 13.6876 0.223621 0.402756
rclavicle 6.95746e-016 1.09332e-014
rhumerus -25.428 -10.9191 -81.0933
rradius 27.3408
rwrist 27.8339
rhand -18.0605 -23.6422
rfingers 7.12502
rthumb 8.21198 -53.4626
lclavicle 6.95746e-016 1.09332e-014
lhumerus -24.7495 -7.81413 90.6135
lradius 26.2339
lwrist 16.6578
lhand -27.3753 -5.39114
lfingers 7.12502
lthumb -0.782538 24.5872
rfemur -24.0232 -2.7624 19.0717
rtibia 33.417
rfoot -17.0823 -1.91677
rtoes 4.69222
lfemur -22.5645 5.92047 -17.9703
ltibia 29.5916
lfoot -14.1451 5.86093
ltoes 0.800582
590
root 0.0553275 17.4257 -7.24069 9.14504 -1.31181 -0.81645
lowerback 4.70839 0.178716 -0.782236
upperback 5.88162 0.186802 1.33591
thorax 3.41777 0.0316172 1.8125
lowerneck -13.4161 0.365865 -1.48104
upperneck 33.844 0.956969 -0.0118288
head 13.6845 0.222916 0.402662
rclavicle -1.09332e-015 -5.1684e-015
rhumerus -25.4336 -10.9349 -81.0927
rradius 27.3329
rwrist 27.851
rhand -18.0678 -23.6356
rfingers 7.12502
rthumb 8.20495 -53.4563
lclavicle -1.09332e-015 -5.1684e-015
lhumerus -24.7518 -7.82205 90.6253
lradius 26.2498
lwrist 16.6595
lhand -27.3702 -5.43817
lfingers 7.12502
lthumb -0.77765 24.5402
rfemur -24.0197 -2.76233 19.0718
rtibia 33.4186
rfoot -17.0814 -1.9166
rtoes 4.69359
lfemur -22.5635 5.91794 -17.9693
ltibia 29.6014
lfoot -14.1479 5.86555
ltoes 0.810687
591
root 0.0555848 17.4253 -7.24138 9.13787 -1.31423 -0.819166
lowerback 4.70922 0.183034 -0.77906
upperback 5.88357 0.192607 1.33534
thorax 3.41913 0.0346283 1.81005
lowerneck -13.4157 0.363897 -1.48168
upperneck 33.84 0.953344 -0.008987
head 13.6826 0.22172 0.403343
rclavicle -1.98785e-015 -9.14409e-015
rhumerus -25.4387 -10.9532 -81.0915
rradius 27.325
rwrist 27.8642
rhand -18.0766 -23.6329
rfingers 7.12502
rthumb 8.19643 -53.4539
lclavicle -1.98785e-015 -9.14409e-015
lhumerus -24.7537 -7.83168 90.6379
lradius 26.2683
lwrist 16.6684
lhand -27.3681 -5.48158
lfingers 7.12502
lthumb -0.775635 24.4968
rfemur -24.0161 -2.75929 19.0738
rtibia 33.4213
rfoot -17.0799 -1.91765
rtoes 4.70155
lfemur -22.5626 5.91752 -17.9664
ltibia 29.6117
lfoot -14.151 5.86994
ltoes 0.817494
592
root 0.055824 17.425 -7.24206 9.12938 -1.31589 -0.822317
lowerback 4.71147 0.186892 -0.776406
upperback 5.8861 0.197762 1.33566
thorax 3.42032 0.0372726 1.8088
lowerneck -13.4178 0.362716 -1.48096
upperneck 33.8384 0.951623 -0.00921074
head 13.6824 0.221086 0.402876
rclavicle -7.95139e-016 -5.36719e-015
rhumerus -25.4415 -10.9722 -81.0902
rradius 27.3162
rwrist 27.8697
rhand -18.0828 -23.638
rfingers 7.12502
rthumb 8.19038 -53.4592
lclavicle -7.95139e-016 -5.36719e-015
lhumerus -24.7539 -7.83878 90.6508
lradius 26.2867
lwrist 16.6818
lhand -27.3686 -5.52144
lfingers 7.12502
lthumb -0.776138 24.4569
rfemur -24.0111 -2.75468 19.0762
rtibia 33.4246
rfoot -17.0782 -1.92154
rtoes 4.70419
lfemur -22.5606 5.91647 -17.9626
ltibia 29.6225
lfoot -14.1541 5.87467
ltoes 0.820555
593
root 0.0560618 17.4247 -7.24274 9.12047 -1.31746 -0.826491
lowerback 4.71376 0.190492 -0.7734
upperback 5.88878 0.202552 1.33708
thorax 3.42166 0.0397203 1.80851
lowerneck -13.4181 0.361816 -1.48319
upperneck 33.8358 0.950708 -0.00827954
head 13.6813 0.220592 0.403499
rclavicle 4.96962e-015 5.96354e-015
rhumerus -25.4438 -10.9912 -81.0876
rradius 27.3069
rwrist 27.8713
rhand -18.0943 -23.645
rfingers 7.12502
rthumb 8.17936 -53.4667
lclavicle 4.96962e-015 5.96354e-015
lhumerus -24.7523 -7.84289 90.6643
lradius 26.3034
lwrist 16.6981
lhand -27.3675 -5.53393
lfingers 7.12502
lthumb -0.775019 24.4444
rfemur -24.0052 -2.74828 19.0795
rtibia 33.4281
rfoot -17.0777 -1.92601
rtoes 4.71018
lfemur -22.558 5.91556 -17.9576
ltibia 29.633
lfoot -14.1572 5.87861
ltoes 0.825647
594
root 0.0563478 17.4244 -7.24335 9.11195 -1.31799 -0.831147
lowerback 4.71434 0.193594 -0.768848
upperback 5.89166 0.206719 1.33834
thorax 3.42419 0.0419112 1.8072
lowerneck -13.4117 0.35998 -1.48903
upperneck 33.8269 0.948032 -0.00385026
head 13.6759 0.219413 0.405822
rclavicle 1.98785e-015 -1.19271e-015
rhumerus -25.446 -11.0106 -81.0858
rradius 27.2983
rwrist 27.8697
rhand -18.109 -23.6547
rfingers 7.12502
rthumb 8.16515 -53.477
lclavicle 1.98785e-015 -1.19271e-015
lhumerus -24.7492 -7.84604 90.6773
lradius 26.3176
lwrist 16.7155
lhand -27.3719 -5.55364
lfingers 7.12502
lthumb -0.779285 24.4247
rfemur -23.9987 -2.74179 19.0829
rtibia 33.4306
rfoot -17.0767 -1.93186
rtoes 4.70798
lfemur -22.5554 5.91338 -17.9524
ltibia 29.6428
lfoot -14.1595 5.88333
ltoes 0.821104
595
root 0.0567335 17.4241 -7.24385 9.10438 -1.31705 -0.834157
lowerback 4.71243 0.195557 -0.764828
upperback 5.89483 0.209377 1.33904
thorax 3.42848 0.0433281 1.80565
lowerneck -13.4017 0.358317 -1.49598
upperneck 33.8143 0.945136 0.00247892
head 13.6681 0.218284 0.409032
rclavicle -3.27995e-015 -7.35503e-015
rhumerus -25.4455 -11.0311 -81.0849
rradius 27.2877
rwrist 27.8702
rhand -18.1305 -23.6597
rfingers 7.12502
rthumb 8.14437 -53.4827
lclavicle -3.27995e-015 -7.35503e-015
lhumerus -24.7432 -7.84859 90.6899
lradius 26.3278
lwrist 16.7337
lhand -27.3765 -5.56453
lfingers 7.12502
lthumb -0.783707 24.4138
rfemur -23.9917 -2.73706 19.084
rtibia 33.4321
rfoot -17.0772 -1.93706
rtoes 4.70353
lfemur -22.5532 5.9085 -17.9494
ltibia 29.6518
lfoot -14.1608 5.88959
ltoes 0.812708
596
root 0.0572295 17.4239 -7.24419 9.09746 -1.31554 -0.837641
lowerback 4.70708 0.197257 -0.759122
upperback 5.89909 0.211722 1.33959
thorax 3.43585 0.0446281 1.80303
lowerneck -13.3883 0.356115 -1.50579
upperneck 33.798 0.941078 0.0119171
head 13.6579 0.216744 0.413769
rclavicle 1.88845e-015 -6.95746e-015
rhumerus -25.4451 -11.0479 -81.0853
rradius 27.2799
rwrist 27.8697
rhand -18.149 -23.6657
rfingers 7.12502
rthumb 8.1265 -53.4894
lclavicle 1.88845e-015 -6.95746e-015
lhumerus -24.7347 -7.84528 90.7013
lradius 26.3348
lwrist 16.7427
lhand -27.383 -5.57518
lfingers 7.12502
lthumb -0.790039 24.4031
rfemur -23.9836 -2.73458 19.0851
rtibia 33.4314
rfoot -17.0783 -1.94041
rtoes 4.69819
lfemur -22.5507 5.90293 -17.9466
ltibia 29.6601
lfoot -14.1617 5.89736
ltoes 0.797984
597
root 0.0578281 17.4237 -7.24448 9.09163 -1.31296 -0.840837
lowerback 4.70079 0.198519 -0.752581
upperback 5.90306 0.213512 1.33984
thorax 3.44346 0.0456925 1.79963
lowerneck -13.3792 0.354303 -1.51513
upperneck 33.7862 0.937622 0.0212869
head 13.6505 0.215465 0.418526
rclavicle -1.39149e-015 -5.36719e-015
rhumerus -25.4432 -11.0654 -81.0858
rradius 27.2702
rwrist 27.8735
rhand -18.1643 -23.6669
rfingers 7.12502
rthumb 8.11175 -53.4912
lclavicle -1.39149e-015 -5.36719e-015
lhumerus -24.7228 -7.83985 90.7118
lradius 26.336
lwrist 16.7481
lhand -27.3862 -5.5875
lfingers 7.12502
lthumb -0.793101 24.3908
rfemur -23.9754 -2.7343 19.0855
rtibia 33.4285
rfoot -17.0789 -1.94242
rtoes 4.69271
lfemur -22.5494 5.89538 -17.9447
ltibia 29.669
lfoot -14.1624 5.90674
ltoes 0.782095
